<svg width="24" height="24" viewBox="0 0 24 24" fill="none" xmlns="http://www.w3.org/2000/svg">
<g clip-path="url(#clip0_229_61)" filter="url(#filter0_d_229_61)">
<path fill-rule="evenodd" clip-rule="evenodd" d="M9 2C8.20435 2 7.44129 2.31607 6.87868 2.87868C6.31607 3.44129 6 4.20435 6 5L6 23C6 23.7956 6.31607 24.5587 6.87868 25.1213C7.44129 25.6839 8.20435 26 9 26H27C27.7956 26 28.5587 25.6839 29.1213 25.1213C29.6839 24.5587 30 23.7956 30 23V5C30 4.20435 29.6839 3.44129 29.1213 2.87868C28.5587 2.31607 27.7956 2 27 2H9ZM18.531 17.969C18.6718 18.1098 18.7509 18.3008 18.7509 18.5C18.7509 18.6992 18.6718 18.8902 18.531 19.031C18.3902 19.1718 18.1992 19.2509 18 19.2509C17.8008 19.2509 17.6098 19.1718 17.469 19.031L12.969 14.531C12.8992 14.4613 12.8437 14.3786 12.8059 14.2874C12.7681 14.1963 12.7487 14.0987 12.7487 14C12.7487 13.9013 12.7681 13.8037 12.8059 13.7125C12.8437 13.6214 12.8992 13.5387 12.969 13.469L17.469 8.969C17.5387 8.89927 17.6215 8.84395 17.7126 8.80621C17.8037 8.76848 17.9014 8.74905 18 8.74905C18.0986 8.74905 18.1963 8.76848 18.2874 8.80621C18.3785 8.84395 18.4613 8.89927 18.531 8.969C18.6007 9.03873 18.656 9.12152 18.6938 9.21262C18.7315 9.30373 18.7509 9.40138 18.7509 9.5C18.7509 9.59862 18.7315 9.69627 18.6938 9.78738C18.656 9.87848 18.6007 9.96127 18.531 10.031L15.3105 13.25H22.5C22.6989 13.25 22.8897 13.329 23.0303 13.4697C23.171 13.6103 23.25 13.8011 23.25 14C23.25 14.1989 23.171 14.3897 23.0303 14.5303C22.8897 14.671 22.6989 14.75 22.5 14.75H15.3105L18.531 17.969Z" fill="#8A93E5"/>
</g>
<defs>
<filter id="filter0_d_229_61" x="0" y="0" width="24" height="24" filterUnits="userSpaceOnUse" color-interpolation-filters="sRGB">
<feFlood flood-opacity="0" result="BackgroundImageFix"/>
<feColorMatrix in="SourceAlpha" type="matrix" values="0 0 0 0 0 0 0 0 0 0 0 0 0 0 0 0 0 0 127 0" result="hardAlpha"/>
<feOffset dy="4"/>
<feGaussianBlur stdDeviation="3"/>
<feColorMatrix type="matrix" values="0 0 0 0 0.541176 0 0 0 0 0.576471 0 0 0 0 0.898039 0 0 0 0.15 0"/>
<feBlend mode="normal" in2="BackgroundImageFix" result="effect1_dropShadow_229_61"/>
<feBlend mode="normal" in="SourceGraphic" in2="effect1_dropShadow_229_61" result="shape"/>
</filter>
<clipPath id="clip0_229_61">
<rect width="24" height="24" fill="white" transform="translate(6 2)"/>
</clipPath>
</defs>
</svg>
