<svg width="37" height="64" viewBox="0 0 37 64" fill="none" xmlns="http://www.w3.org/2000/svg">
<g clip-path="url(#clip0_229_54)">
<path d="M18.5219 0C8.29537 0 0 8.44103 0 18.8472V45.1975C0 55.6036 8.29537 64.0447 18.5219 64.0447C28.7485 64.0447 37.0439 55.6036 37.0439 45.1975V18.8472C37 8.44103 28.7046 0 18.5219 0ZM35.5516 45.1975C35.5516 54.7551 27.9146 62.5262 18.5219 62.5262C9.1293 62.5262 1.49229 54.7551 1.49229 45.1975V18.8472C1.49229 9.2896 9.1293 1.51849 18.5219 1.51849C27.9146 1.51849 35.5516 9.2896 35.5516 18.8472V45.1975Z" fill="white"/>
<path d="M12.7725 22.42L24.7108 36.8904L31.8211 28.2707L26.0275 22.42H12.7725ZM23.9646 23.8939L19.6194 28.3154L15.9765 23.8939H23.9646ZM24.7108 34.5233L20.5411 29.4766L25.7203 24.2065L29.7582 28.3154L24.7108 34.5233Z" fill="white"/>
<path d="M5.22266 28.2708L18.5216 44.4383L23.569 38.3197L10.709 22.6881L5.22266 28.2708ZM18.5216 42.0712L7.19775 28.3601L10.5773 24.9212L21.594 38.3197L18.5216 42.0712Z" fill="white"/>
</g>
<defs>
<clipPath id="clip0_229_54">
<rect width="37" height="64" fill="white"/>
</clipPath>
</defs>
</svg>
