<svg width="30" height="30" viewBox="0 0 30 30" fill="none" xmlns="http://www.w3.org/2000/svg">
<path d="M24.85 11.25H21.0936L15.7498 4.125C15.6625 4.00857 15.5493 3.91406 15.4191 3.84897C15.2889 3.78389 15.1454 3.75 14.9998 3.75C14.8543 3.75 14.7108 3.78389 14.5806 3.84897C14.4504 3.91406 14.3372 4.00857 14.2498 4.125L8.90609 11.25H5.14964C4.64431 11.2492 4.1593 11.4489 3.80099 11.8052C3.44269 12.1616 3.24033 12.6455 3.23831 13.1508C3.23722 13.3294 3.2631 13.5072 3.31507 13.6781L6.02621 23.2371C6.2025 23.8601 6.57743 24.4085 7.09399 24.7989C7.61054 25.1893 8.24045 25.4003 8.88792 25.3998H21.1118C21.7593 25.3978 22.3888 25.1864 22.9063 24.7971C23.4237 24.4079 23.8014 23.8616 23.9828 23.24L26.6975 13.6682C26.71 13.6228 26.719 13.5766 26.7244 13.5299L26.7555 13.241C26.759 13.2109 26.7608 13.1805 26.7608 13.1502C26.7586 12.6451 26.5563 12.1614 26.1981 11.8052C25.8399 11.449 25.3552 11.2494 24.85 11.25ZM14.9998 6.2502L18.7498 11.25H11.2498L14.9998 6.2502ZM14.9998 20.6057C14.5634 20.6036 14.1374 20.4723 13.7755 20.2283C13.4136 19.9843 13.1321 19.6386 12.9665 19.2347C12.801 18.8309 12.7587 18.3871 12.8451 17.9593C12.9316 17.5315 13.1428 17.1389 13.4521 16.831C13.7615 16.5231 14.1551 16.3138 14.5833 16.2294C15.0115 16.145 15.4551 16.1894 15.8581 16.3569C16.2612 16.5244 16.6055 16.8075 16.8478 17.1705C17.0901 17.5336 17.2194 17.9602 17.2194 18.3967C17.2161 18.9831 16.9808 19.5445 16.5649 19.958C16.149 20.3715 15.5863 20.6035 14.9998 20.6033V20.6057Z" fill="white"/>
</svg>
