<svg width="28" height="38" viewBox="0 0 28 38" fill="none" xmlns="http://www.w3.org/2000/svg">
<path d="M13.9997 6.99992C13.6903 6.99992 13.3935 7.12284 13.1747 7.34163C12.9559 7.56042 12.833 7.85717 12.833 8.16659V10.4999C12.833 10.8093 12.9559 11.1061 13.1747 11.3249C13.3935 11.5437 13.6903 11.6666 13.9997 11.6666C14.3091 11.6666 14.6058 11.5437 14.8246 11.3249C15.0434 11.1061 15.1663 10.8093 15.1663 10.4999V8.16659C15.1663 7.85717 15.0434 7.56042 14.8246 7.34163C14.6058 7.12284 14.3091 6.99992 13.9997 6.99992ZM13.9997 2.33325C11.8337 2.33325 9.75652 3.19367 8.22497 4.72521C6.69342 6.25676 5.83301 8.33398 5.83301 10.4999V17.4999C5.83301 19.6659 6.69342 21.7431 8.22497 23.2746C9.75652 24.8062 11.8337 25.6666 13.9997 25.6666C16.1656 25.6666 18.2428 24.8062 19.7744 23.2746C21.3059 21.7431 22.1663 19.6659 22.1663 17.4999V10.4999C22.1663 8.33398 21.3059 6.25676 19.7744 4.72521C18.2428 3.19367 16.1656 2.33325 13.9997 2.33325ZM19.833 17.4999C19.833 19.047 19.2184 20.5307 18.1245 21.6247C17.0305 22.7187 15.5468 23.3333 13.9997 23.3333C12.4526 23.3333 10.9688 22.7187 9.87489 21.6247C8.78092 20.5307 8.16634 19.047 8.16634 17.4999V10.4999C8.16634 8.95282 8.78092 7.46909 9.87489 6.37513C10.9688 5.28117 12.4526 4.66659 13.9997 4.66659C15.5468 4.66659 17.0305 5.28117 18.1245 6.37513C19.2184 7.46909 19.833 8.95282 19.833 10.4999V17.4999Z" fill="#307189"/>
<path d="M14.866 36.5C14.4811 37.1667 13.5189 37.1667 13.134 36.5L12.2679 35C11.883 34.3333 12.3642 33.5 13.134 33.5L14.866 33.5C15.6358 33.5 16.117 34.3333 15.7321 35L14.866 36.5Z" fill="#307189"/>
</svg>
